<svg xmlns="http://www.w3.org/2000/svg" viewBox="0 0 1024 1024"><path fill="#ffc843" d="M1024 512A512 512 0 1 1 0 512a512 512 0 0 1 1024 0z"/><path fill="#d38700" d="M910.2 512a398.2 398.2 0 1 1-796.4 0 398.2 398.2 0 0 1 796.4 0z"/><path fill="#ffc843" d="M783 433.3a17 17 0 0 0-19 14.8 35.5 35.5 0 0 1-25.3 31.7 134.8 134.8 0 0 0-132.1-108H439.8c-3.4 0-6.8.1-10.1.4-5.2-33.4-34-59-68.9-59v84.1a135.1 135.1 0 0 0-48 64h-46.5a23.2 23.2 0 0 0-23.2 23.1v42.1a23.2 23.2 0 0 0 23.2 23.2H310a135 135 0 0 0 58.9 78.4v69.3c0 7.4 6 13.5 13.4 13.5h70.2c7.4 0 13.4-6 13.4-13.5v-49h113v49c0 7.4 6 13.5 13.4 13.5h70c7.5 0 13.5-6 13.5-13.5v-68.2c39-23.4 65-65.8 65.5-114.5 40.8-10.5 53.4-38.8 56.5-62.2a17 17 0 0 0-14.7-19.2z"/></svg>